{
    "asset" : {
        "generator" : "Khronos glTF Blender I/O v0.9.36",
        "version" : "2.0"
    },
    "scene" : 0,
    "scenes" : [
        {
            "extras" : {
                "blenderkitUI" : {
                    "assetbar_on" : 0,
                    "turn_off" : 0
                },
                "uuid" : "9e7d679f-c523-4722-9125-ddb17258e701"
            },
            "name" : "Scene",
            "nodes" : [
                0
            ]
        }
    ],
    "nodes" : [
        {
            "mesh" : 0,
            "name" : "Cylinder"
        }
    ],
    "materials" : [
        {
            "doubleSided" : true,
            "name" : "body",
            "pbrMetallicRoughness" : {"metallicFactor": 0.5, "roughnessFactor": 0.1, "baseColorFactor": [1, 1, 1, 1]}
        },
        {
            "doubleSided" : true,
            "name" : "motor_body",
            "pbrMetallicRoughness" : {"metallicFactor": 0.5, "roughnessFactor": 0.2, "baseColorFactor": [0.1, 0.1, 0.1, 1]}
        },
        {
            "doubleSided" : true,
            "name" : "motor_nozzle",
            "pbrMetallicRoughness" : {"metallicFactor": 0.5, "roughnessFactor": 0.6, "baseColorFactor": [0.7, 0.2, 0, 1]}
        },
        {
            "doubleSided" : true,
            "name" : "radar_dome",
            "pbrMetallicRoughness" : {"metallicFactor": 0.5, "roughnessFactor": 0.1, "baseColorFactor": [0.1, 1, 0.1, 1]}
        }
    ],
    "meshes" : [
        {
            "name" : "Cylinder",
            "primitives" : [
                {
                    "attributes" : {
                        "POSITION" : 0,
                        "NORMAL" : 1,
                        "TEXCOORD_0" : 2
                    },
                    "indices" : 3,
                    "material" : 0
                },
                {
                    "attributes" : {
                        "POSITION" : 4,
                        "NORMAL" : 5,
                        "TEXCOORD_0" : 6
                    },
                    "indices" : 7,
                    "material" : 1
                },
                {
                    "attributes" : {
                        "POSITION" : 8,
                        "NORMAL" : 9,
                        "TEXCOORD_0" : 10
                    },
                    "indices" : 11,
                    "material" : 2
                },
                {
                    "attributes" : {
                        "POSITION" : 12,
                        "NORMAL" : 13,
                        "TEXCOORD_0" : 14
                    },
                    "indices" : 15,
                    "material" : 3
                }
            ]
        }
    ],
    "accessors" : [
        {
            "bufferView" : 0,
            "componentType" : 5126,
            "count" : 12871,
            "max" : [
                0.14879421889781952,
                1.0504366159439087,
                0.14879482984542847
            ],
            "min" : [
                -0.14879468083381653,
                -1.897586703300476,
                -0.14879409968852997
            ],
            "type" : "VEC3"
        },
        {
            "bufferView" : 1,
            "componentType" : 5126,
            "count" : 12871,
            "type" : "VEC3"
        },
        {
            "bufferView" : 2,
            "componentType" : 5126,
            "count" : 12871,
            "type" : "VEC2"
        },
        {
            "bufferView" : 3,
            "componentType" : 5123,
            "count" : 19458,
            "type" : "SCALAR"
        },
        {
            "bufferView" : 4,
            "componentType" : 5126,
            "count" : 6656,
            "max" : [
                0.09023208171129227,
                -1.8038982152938843,
                0.09023208171129227
            ],
            "min" : [
                -0.09023214131593704,
                -1.897586464881897,
                -0.09023208916187286
            ],
            "type" : "VEC3"
        },
        {
            "bufferView" : 5,
            "componentType" : 5126,
            "count" : 6656,
            "type" : "VEC3"
        },
        {
            "bufferView" : 6,
            "componentType" : 5126,
            "count" : 6656,
            "type" : "VEC2"
        },
        {
            "bufferView" : 7,
            "componentType" : 5123,
            "count" : 9984,
            "type" : "SCALAR"
        },
        {
            "bufferView" : 8,
            "componentType" : 5126,
            "count" : 6656,
            "max" : [
                0.07957322150468826,
                -1.7705734968185425,
                0.07957331091165543
            ],
            "min" : [
                -0.07957340031862259,
                -1.8938390016555786,
                -0.07957331836223602
            ],
            "type" : "VEC3"
        },
        {
            "bufferView" : 9,
            "componentType" : 5126,
            "count" : 6656,
            "type" : "VEC3"
        },
        {
            "bufferView" : 10,
            "componentType" : 5126,
            "count" : 6656,
            "type" : "VEC2"
        },
        {
            "bufferView" : 11,
            "componentType" : 5123,
            "count" : 9984,
            "type" : "SCALAR"
        },
        {
            "bufferView" : 12,
            "componentType" : 5126,
            "count" : 9728,
            "max" : [
                0.09935951977968216,
                1.4873875379562378,
                0.09935951977968216
            ],
            "min" : [
                -0.09935951977968216,
                1,
                -0.09935951977968216
            ],
            "type" : "VEC3"
        },
        {
            "bufferView" : 13,
            "componentType" : 5126,
            "count" : 9728,
            "type" : "VEC3"
        },
        {
            "bufferView" : 14,
            "componentType" : 5126,
            "count" : 9728,
            "type" : "VEC2"
        },
        {
            "bufferView" : 15,
            "componentType" : 5123,
            "count" : 14592,
            "type" : "SCALAR"
        }
    ],
    "bufferViews" : [
        {
            "buffer" : 0,
            "byteLength" : 154452,
            "byteOffset" : 0
        },
        {
            "buffer" : 0,
            "byteLength" : 154452,
            "byteOffset" : 154452
        },
        {
            "buffer" : 0,
            "byteLength" : 102968,
            "byteOffset" : 308904
        },
        {
            "buffer" : 0,
            "byteLength" : 38916,
            "byteOffset" : 411872
        },
        {
            "buffer" : 0,
            "byteLength" : 79872,
            "byteOffset" : 450788
        },
        {
            "buffer" : 0,
            "byteLength" : 79872,
            "byteOffset" : 530660
        },
        {
            "buffer" : 0,
            "byteLength" : 53248,
            "byteOffset" : 610532
        },
        {
            "buffer" : 0,
            "byteLength" : 19968,
            "byteOffset" : 663780
        },
        {
            "buffer" : 0,
            "byteLength" : 79872,
            "byteOffset" : 683748
        },
        {
            "buffer" : 0,
            "byteLength" : 79872,
            "byteOffset" : 763620
        },
        {
            "buffer" : 0,
            "byteLength" : 53248,
            "byteOffset" : 843492
        },
        {
            "buffer" : 0,
            "byteLength" : 19968,
            "byteOffset" : 896740
        },
        {
            "buffer" : 0,
            "byteLength" : 116736,
            "byteOffset" : 916708
        },
        {
            "buffer" : 0,
            "byteLength" : 116736,
            "byteOffset" : 1033444
        },
        {
            "buffer" : 0,
            "byteLength" : 77824,
            "byteOffset" : 1150180
        },
        {
            "buffer" : 0,
            "byteLength" : 29184,
            "byteOffset" : 1228004
        }
    ],
    "buffers" : [
        {
            "byteLength" : 1257188,
            "uri" : "data:application/octet-stream;base64,"
        }
    ]
}
